<svg xmlns="http://www.w3.org/2000/svg" viewBox="0 0 512 512" width="100%" height="100%">
  <g fill="currentColor" text-rendering="geometricPrecision">
    <!-- Crescent Half-Moon Curve -->
    <path d="M 230,440 C 120,440 32,352 32,242 C 32,132 120,44 230,44 C 180,90 150,160 150,242 C 150,324 180,394 230,440 Z" />

    <!-- Radiating Light Rays (Ishraq Dawn) emanating from Crescent -->
    <path d="M 280,242 L 440,242 M 270,190 L 408,110 M 270,294 L 408,374 M 240,146 L 340,46 M 240,338 L 340,438" stroke="currentColor" stroke-width="24" stroke-linecap="round" fill="none" />

    <!-- Core 8-Pointed Star of Light inside Crescent -->
    <polygon points="260,192 276,224 310,210 296,242 330,256 296,270 310,302 276,288 260,320 244,288 210,302 224,270 190,256 224,242 210,210 244,224" />
    <circle cx="260" cy="256" r="16" fill="#F2EEE6" fill-opacity="0.9" />
  </g>
</svg>
